<svg width="24" height="24" viewBox="0 0 24 24" fill="none" xmlns="http://www.w3.org/2000/svg">
<path d="M19.821 19.918L15.944 18.787L13.02 20.499H10.98L8.054 18.787L4.179 19.917L3 16.02L4.179 11.693L3 8.034L4.179 3.5L10.235 7.044H13.765L19.821 3.5L21 8.034L19.821 11.692L21 16.02L19.821 19.918Z" fill="#FF5C16"/>
<path d="M4.17969 3.5L10.2347 7.047L9.99469 9.481L4.17969 3.5ZM8.05469 16.02L10.7197 18.01L8.05469 18.787V16.02ZM10.5067 12.734L9.99469 9.483L6.71669 11.693H6.71469V11.694L6.72469 13.969L8.05469 12.734H10.5067ZM19.8197 3.5L13.7637 7.047L14.0037 9.481L19.8197 3.5ZM15.9447 16.02L13.2797 18.01L15.9447 18.787V16.02ZM17.2837 11.694L14.0047 9.484L13.4927 12.734H15.9437L17.2737 13.97L17.2837 11.694Z" fill="#FF5C16"/>
<path d="M8.054 18.7874L4.179 19.9174L3 16.0224H8.054V18.7874ZM10.506 12.7334L11.246 17.4334L10.22 14.8194L6.723 13.9694L8.053 12.7334H10.506ZM15.946 18.7874L19.821 19.9174L21 16.0224H15.945L15.946 18.7874ZM13.494 12.7334L12.754 17.4334L13.78 14.8194L17.277 13.9694L15.946 12.7334H13.494Z" fill="#E34807"/>
<path d="M3 16.0199L4.179 11.6919H6.714L6.724 13.9679L10.22 14.8179L11.246 17.4309L10.719 18.0069L8.054 16.0179H3V16.0199ZM21 16.0199L19.821 11.6919H17.286L17.276 13.9679L13.78 14.8179L12.754 17.4309L13.281 18.0069L15.946 16.0179H21V16.0199ZM13.765 7.04395H10.235L9.995 9.47895L11.246 17.4289H12.754L14.006 9.47895L13.765 7.04395Z" fill="#FF8D5D"/>
<path d="M4.179 3.5L3 8.034L4.179 11.692H6.714L9.994 9.481L4.179 3.5ZM9.773 13.677H8.625L7.999 14.277L10.221 14.817L9.773 13.677ZM19.821 3.5L21 8.034L19.821 11.692H17.286L14.006 9.481L19.821 3.5ZM14.228 13.677H15.378L16.004 14.277L13.78 14.818L14.228 13.677ZM13.019 18.948L13.281 18.008L12.754 17.433H11.245L10.718 18.008L10.98 18.948" fill="#661800"/>
<path d="M13.0205 18.9482V20.5002H10.9805V18.9482H13.0205Z" fill="#C0C4CD"/>
<path d="M8.05469 18.7848L10.9817 20.4988V18.9468L10.7197 18.0068L8.05469 18.7848ZM15.9447 18.7848L13.0197 20.4998V18.9478L13.2817 18.0078L15.9447 18.7848Z" fill="#E7EBF6"/>
</svg>
