<svg width="24" height="24" viewBox="0 0 24 24" fill="none" xmlns="http://www.w3.org/2000/svg">
<path opacity="0.2" fill-rule="evenodd" clip-rule="evenodd" d="M12 18.3C12.8273 18.3 13.6466 18.137 14.4109 17.8204C15.1753 17.5038 15.8698 17.0398 16.4548 16.4548C17.0398 15.8698 17.5038 15.1753 17.8204 14.4109C18.137 13.6466 18.3 12.8273 18.3 12C18.3 11.1727 18.137 10.3534 17.8204 9.58909C17.5038 8.82474 17.0398 8.13024 16.4548 7.54523C15.8698 6.96022 15.1753 6.49616 14.4109 6.17956C13.6466 5.86295 12.8273 5.7 12 5.7C10.3291 5.7 8.72671 6.36375 7.54523 7.54523C6.36375 8.72671 5.7 10.3291 5.7 12C5.7 13.6709 6.36375 15.2733 7.54523 16.4548C8.72671 17.6363 10.3291 18.3 12 18.3ZM12 21C16.9707 21 21 16.9707 21 12C21 7.0293 16.9707 3 12 3C7.0293 3 3 7.0293 3 12C3 16.9707 7.0293 21 12 21Z" fill="#0096AA"/>
<path d="M3 12C3 7.0293 7.0293 3 12 3V5.7C10.3291 5.7 8.72671 6.36375 7.54523 7.54523C6.36375 8.72671 5.7 10.3291 5.7 12H3Z" fill="#0096AA"/>
</svg>
