<svg width="24" height="24" viewBox="0 0 24 24" fill="none" xmlns="http://www.w3.org/2000/svg">
<path d="M14.5857 7.55516C14.5857 7.55516 15.5699 7.07031 11.9998 7.07031C10.7212 7.07031 9.47135 7.44946 8.40824 8.1598C7.34513 8.87015 6.51654 9.87979 6.02725 11.061C5.53796 12.2423 5.40994 13.5421 5.65938 14.7961C5.90882 16.0502 6.52451 17.2021 7.42861 18.1062C8.33271 19.0103 9.4846 19.6259 10.7386 19.8754C11.9926 20.1248 13.2925 19.9968 14.4737 19.5075C15.655 19.0182 16.6646 18.1896 17.375 17.1265C18.0853 16.0634 18.4645 14.8135 18.4645 13.535" stroke="#6B7280" stroke-width="1.5" stroke-miterlimit="10"/>
<path d="M12 4L15.2323 7.23232L12 10.4646" stroke="#6B7280" stroke-width="1.5"/>
</svg>
