<svg width="32" height="32" viewBox="0 0 32 32" fill="none" xmlns="http://www.w3.org/2000/svg">
  <path d="M16 0C7.17629 0 0 7.17631 0 16C0 24.8237 7.17629 32 16 32C24.8237 32 32 24.8237 32 16C32 7.17631 24.8237 0 16 0ZM26.6742 26.6516H5.34838V5.32582H26.6742V26.6516Z" fill="#0096AA"/>
  <path d="M5.34814 26.6513H26.6739V5.3255H5.34814V26.6513ZM15.9998 7.13086C20.8968 7.13086 24.8686 11.1026 24.8686 15.9997C24.8686 20.8967 20.8968 24.8685 15.9998 24.8685C11.1027 24.8685 7.13093 20.8967 7.13093 15.9997C7.13093 11.1026 11.1027 7.13086 15.9998 7.13086Z" fill="#F0FFFA"/>
  <path d="M18.6854 13.2917H13.3145V18.6626H18.6854V13.2917Z" fill="#FF8C50"/>
  <path d="M16.0002 24.8458C20.8972 24.8458 24.869 20.874 24.869 15.9769C24.869 11.0799 20.8972 7.10809 16.0002 7.10809C11.1031 7.10809 7.13135 11.0799 7.13135 15.9769C7.13135 20.874 11.1031 24.8458 16.0002 24.8458ZM13.3147 18.6624V13.2915H18.6856V18.6624H13.3147Z" fill="#AA0019"/>
</svg>
