<svg width="153" height="32" viewBox="0 0 153 32" fill="none" xmlns="http://www.w3.org/2000/svg">
  <path d="M16 0C7.17629 0 0 7.17631 0 16C0 24.8237 7.17629 32 16 32C24.8237 32 32 24.8237 32 16C32 7.17631 24.8237 0 16 0ZM26.6742 26.6516H5.34838V5.32582H26.6742V26.6516Z" fill="#0096AA"/>
  <path d="M5.34814 26.6513H26.6739V5.3255H5.34814V26.6513ZM15.9998 7.13086C20.8968 7.13086 24.8686 11.1026 24.8686 15.9997C24.8686 20.8967 20.8968 24.8685 15.9998 24.8685C11.1027 24.8685 7.13093 20.8967 7.13093 15.9997C7.13093 11.1026 11.1027 7.13086 15.9998 7.13086Z" fill="#F0FFFA"/>
  <path d="M18.6854 13.2917H13.3145V18.6626H18.6854V13.2917Z" fill="#FF8C50"/>
  <path d="M16.0002 24.8458C20.8972 24.8458 24.869 20.874 24.869 15.9769C24.869 11.0799 20.8972 7.10809 16.0002 7.10809C11.1031 7.10809 7.13135 11.0799 7.13135 15.9769C7.13135 20.874 11.1031 24.8458 16.0002 24.8458ZM13.3147 18.6624V13.2915H18.6856V18.6624H13.3147Z" fill="#AA0019"/>
  <path d="M91.6859 9.68101C90.1514 7.33405 87.3756 5.86719 84.1034 5.86719C78.7551 5.86719 74.3545 10.2903 74.3545 15.9998C74.3545 21.7092 78.7551 26.1324 84.1034 26.1324C89.4518 26.1324 90.1288 24.6655 91.6859 22.3185V25.6359H95.0258V6.38624H91.6859V9.70358V9.68101ZM84.3968 22.8827C80.5378 22.8827 77.5816 19.9264 77.5816 15.9998C77.5816 12.0731 80.5378 9.11684 84.3968 9.11684C88.2558 9.11684 91.4828 12.0731 91.4828 15.9998C91.4828 19.9264 89.1584 22.8827 84.3968 22.8827Z" fill="black"/>
  <path d="M109.649 6.36328H98.6592V25.6129H102.022V9.34213H109.649V6.36328Z" fill="black"/>
  <path d="M45.3335 6.36328V25.6129H48.696V9.34213H56.7073V25.6129H60.0472V9.34213H68.0585V25.6129H71.4209V6.36328H45.3335Z" fill="black"/>
  <path d="M120.12 5.86719C114.501 5.86719 109.988 10.2903 109.988 15.9998C109.988 21.7092 114.501 26.1324 120.12 26.1324C125.74 26.1324 130.298 21.7092 130.298 15.9998C130.298 10.2903 125.762 5.86719 120.12 5.86719ZM120.12 23.0858C116.194 23.0858 113.125 20.0167 113.125 15.9998C113.125 11.9828 116.194 8.91373 120.12 8.91373C124.047 8.91373 127.161 11.9828 127.161 15.9998C127.161 20.0167 124.092 23.0858 120.12 23.0858Z" fill="black"/>
  <path d="M142.574 5.86719C136.955 5.86719 132.442 10.2903 132.442 15.9998C132.442 21.7092 136.955 26.1324 142.574 26.1324C148.194 26.1324 152.752 21.7092 152.752 15.9998C152.752 10.2903 148.216 5.86719 142.574 5.86719ZM142.574 23.0858C138.648 23.0858 135.579 20.0167 135.579 15.9998C135.579 11.9828 138.648 8.91373 142.574 8.91373C146.501 8.91373 149.615 11.9828 149.615 15.9998C149.615 20.0167 146.546 23.0858 142.574 23.0858Z" fill="black"/>
</svg>
