<svg width="115" height="24" viewBox="0 0 115 24" fill="none" xmlns="http://www.w3.org/2000/svg">
  <path d="M12 0C5.38222 0 0 5.38223 0 12C0 18.6178 5.38222 24 12 24C18.6178 24 24 18.6178 24 12C24 5.38223 18.6178 0 12 0ZM20.0056 19.9887H4.01128V3.99436H20.0056V19.9887Z" fill="#0096AA"/>
  <path d="M4.01123 19.9886H20.0056V3.99426H4.01123V19.9886ZM11.9999 5.34828C15.6727 5.34828 18.6516 8.32712 18.6516 11.9999C18.6516 15.6727 15.6727 18.6515 11.9999 18.6515C8.32716 18.6515 5.34832 15.6727 5.34832 11.9999C5.34832 8.32712 8.32716 5.34828 11.9999 5.34828Z" fill="#F0FFFA"/>
  <path d="M14.014 9.96863H9.98584V13.9968H14.014V9.96863Z" fill="#FF8C50"/>
  <path d="M12.0003 18.6342C15.673 18.6342 18.6519 15.6553 18.6519 11.9826C18.6519 8.30978 15.673 5.33093 12.0003 5.33093C8.32747 5.33093 5.34863 8.30978 5.34863 11.9826C5.34863 15.6553 8.32747 18.6342 12.0003 18.6342ZM9.98615 13.9967V9.96845H14.0144V13.9967H9.98615Z" fill="#AA0019"/>
  <path d="M68.7642 7.26076C67.6133 5.50054 65.5315 4.40039 63.0773 4.40039C59.066 4.40039 55.7656 7.71774 55.7656 11.9998C55.7656 16.2819 59.066 19.5993 63.0773 19.5993C67.0886 19.5993 67.5964 18.4991 68.7642 16.7389V19.2269H71.2691V4.78968H68.7642V7.27768V7.26076ZM63.2974 17.162C60.4031 17.162 58.1859 14.9448 58.1859 11.9998C58.1859 9.05484 60.4031 6.83763 63.2974 6.83763C66.1916 6.83763 68.6119 9.05484 68.6119 11.9998C68.6119 14.9448 66.8686 17.162 63.2974 17.162Z" fill="black"/>
  <path d="M82.2367 4.77246H73.9941V19.2097H76.516V7.00659H82.2367V4.77246Z" fill="black"/>
  <path d="M34 4.77246V19.2097H36.5219V7.00659H42.5303V19.2097H45.0353V7.00659H51.0437V19.2097H53.5656V4.77246H34Z" fill="black"/>
  <path d="M90.0902 4.40039C85.8758 4.40039 82.4907 7.71774 82.4907 11.9998C82.4907 16.2819 85.8758 19.5993 90.0902 19.5993C94.3045 19.5993 97.7234 16.2819 97.7234 11.9998C97.7234 7.71774 94.3215 4.40039 90.0902 4.40039ZM90.0902 17.3144C87.1452 17.3144 84.8433 15.0125 84.8433 11.9998C84.8433 8.98713 87.1452 6.6853 90.0902 6.6853C93.0352 6.6853 95.3708 8.98713 95.3708 11.9998C95.3708 15.0125 93.069 17.3144 90.0902 17.3144Z" fill="black"/>
  <path d="M106.931 4.40039C102.717 4.40039 99.3315 7.71774 99.3315 11.9998C99.3315 16.2819 102.717 19.5993 106.931 19.5993C111.145 19.5993 114.564 16.2819 114.564 11.9998C114.564 7.71774 111.162 4.40039 106.931 4.40039ZM106.931 17.3144C103.986 17.3144 101.684 15.0125 101.684 11.9998C101.684 8.98713 103.986 6.6853 106.931 6.6853C109.876 6.6853 112.212 8.98713 112.212 11.9998C112.212 15.0125 109.91 17.3144 106.931 17.3144Z" fill="black"/>
</svg>
